<?xml version="1.0" encoding="UTF-8" standalone="yes"?>
<!DOCTYPE svg PUBLIC "-//W3C//DTD SVG 1.1//EN" "http://www.w3.org/Graphics/SVG/1.1/DTD/svg11.dtd">

<svg width="534" height="348" viewBox="0 0 534 348" xmlns="http://www.w3.org/2000/svg" xmlns:xlink="http://www.w3.org/1999/xlink" version="1.1" baseProfile="full">
    <g transform="scale(1,-1) translate(0,-348)">
        <path d="M 1.000000 1.000000 L 535.000000 1.000000 L 535.000000 349.000000 L 1.000000 349.000000 Z" transform="scale(1.000000,1.000000) translate(-1.000000,-1.000000)" fill="#ffffff" opacity="1.000000"></path>
        <path d="M 262.502515 156.085071 L 269.621815 163.501171 L 272.996715 166.937371 L 276.259315 170.200471 L 279.417915 173.296771 L 282.480815 176.232471 L 285.456315 179.013871 L 288.352515 181.646971 L 291.177715 184.138171 L 293.940115 186.493571 L 296.648015 188.719371 L 299.309715 190.821871 L 301.933415 192.807271 L 304.527315 194.681671 L 307.099615 196.451371 L 309.658715 198.122571 L 312.746515 200.013071 L 315.819515 201.748371 L 318.879615 203.327371 L 321.928715 204.748971 L 324.968815 206.011871 L 328.001915 207.115071 L 329.516515 207.606271 L 331.029915 208.057171 L 332.542715 208.467571 L 334.054815 208.837171 L 335.566715 209.165971 L 337.078515 209.453871 L 338.590515 209.700571 L 340.102915 209.906071 L 341.616115 210.070171 L 343.130115 210.192671 L 344.645315 210.273371 L 346.161915 210.312371 L 347.680215 210.309271 L 349.200415 210.264071 L 350.722715 210.176571 L 352.247415 210.046671 L 353.774715 209.874171 L 355.304915 209.658971 L 356.838315 209.400871 L 358.375015 209.099771 L 359.915215 208.755471 L 361.459415 208.367871 L 363.007615 207.936771 L 364.560215 207.462071 L 366.117415 206.943671 L 367.679415 206.381371 L 369.246415 205.775071 L 370.818815 205.124471 L 372.396715 204.429671 L 373.980415 203.690271 L 377.166315 202.077571 L 380.378215 200.285171 L 383.618315 198.311971 L 386.888415 196.156671 L 390.190515 193.818271 L 393.526515 191.295471 L 396.898515 188.587171 L 400.308215 185.692171 L 403.757815 182.609371 L 407.249115 179.337571 L 410.784115 175.875471 L 410.958515 175.731171 L 411.140315 175.634271 L 411.325615 175.581171 L 411.510615 175.568171 L 411.863415 175.648271 L 412.167015 175.845471 L 412.389815 176.130871 L 412.500215 176.475371 L 412.503315 176.660771 L 412.466515 176.850071 L 412.385715 177.039571 L 412.257015 177.225771 L 408.615815 181.488171 L 405.018715 185.551671 L 401.463715 189.417571 L 397.949215 193.087171 L 394.473315 196.561571 L 391.034415 199.842271 L 387.630415 202.930571 L 384.259815 205.827571 L 380.920715 208.534771 L 377.611315 211.053271 L 374.329915 213.384471 L 371.074715 215.529671 L 367.843815 217.490071 L 364.635515 219.267071 L 363.039215 220.087171 L 361.448015 220.861871 L 359.861515 221.591371 L 358.279515 222.275771 L 356.701915 222.915271 L 355.128315 223.510071 L 353.558615 224.060271 L 351.992515 224.566171 L 350.429915 225.027671 L 348.870415 225.445171 L 347.314015 225.818671 L 345.760215 226.148471 L 344.209015 226.434571 L 342.660115 226.677271 L 341.113315 226.876771 L 339.568415 227.033071 L 338.025015 227.146371 L 336.483115 227.216871 L 334.942415 227.244771 L 333.402615 227.230171 L 331.863615 227.173271 L 330.325115 227.074171 L 328.786915 226.933171 L 327.248815 226.750271 L 325.710515 226.525671 L 324.171915 226.259571 L 322.632615 225.952071 L 321.092615 225.603471 L 319.551415 225.213771 L 318.009115 224.783271 L 316.465215 224.311971 L 314.919615 223.800171 L 311.822515 222.655671 L 308.715815 221.350771 L 306.043415 220.107871 L 303.355315 218.749871 L 300.646315 217.273671 L 297.910915 215.676671 L 295.143915 213.955971 L 292.339815 212.108571 L 289.493415 210.131771 L 286.599215 208.022671 L 283.652015 205.778271 L 280.646315 203.395971 L 277.577015 200.872671 L 274.438515 198.205671 L 271.225615 195.392071 L 267.932915 192.429071 L 264.555115 189.313671 L 261.086815 186.043071 L 255.807415 180.884471 L 248.497415 173.579371 L 239.943615 164.945071 L 230.932515 155.799071 L 227.549715 152.352671 L 230.352215 152.352671 L 232.350015 154.388071 L 241.354315 163.527271 L 249.899115 172.152671 L 257.198515 179.447571 L 262.466415 184.595071 L 265.906115 187.838771 L 269.255015 190.927871 L 272.518415 193.865071 L 275.701415 196.653371 L 278.809215 199.295471 L 281.847215 201.794271 L 284.820415 204.152571 L 287.734115 206.373271 L 290.593615 208.459171 L 293.404115 210.412971 L 296.170715 212.237771 L 298.898615 213.936171 L 301.593215 215.511171 L 304.259615 216.965471 L 306.903115 218.301971 L 309.528715 219.523471 L 312.546915 220.791071 L 315.555915 221.902871 L 318.557715 222.857371 L 320.056515 223.275271 L 321.554115 223.653371 L 323.050915 223.991371 L 324.546915 224.289371 L 326.042615 224.546871 L 327.538015 224.763971 L 329.033515 224.940271 L 330.529215 225.075771 L 332.025415 225.170271 L 333.522415 225.223571 L 335.020215 225.235471 L 336.519315 225.205771 L 338.019715 225.134371 L 339.521815 225.021071 L 341.025815 224.865771 L 342.531915 224.668171 L 344.040215 224.428171 L 345.551215 224.145571 L 347.064915 223.820271 L 348.581715 223.451971 L 350.101715 223.040671 L 351.625115 222.585971 L 353.152315 222.087871 L 354.683415 221.546171 L 356.218715 220.960671 L 357.758415 220.331171 L 359.302715 219.657571 L 360.851815 218.939571 L 362.406115 218.177171 L 363.965615 217.370071 L 367.101615 215.621271 L 370.261615 213.691771 L 373.447515 211.580171 L 376.661115 209.285071 L 379.904215 206.805071 L 383.178715 204.138971 L 386.486515 201.285171 L 389.829315 198.242371 L 393.209015 195.009271 L 396.627415 191.584371 L 397.532215 190.637971 L 394.619815 192.970271 L 391.213815 195.536771 L 387.840115 197.915971 L 384.496915 200.108971 L 381.182215 202.116971 L 377.894315 203.941071 L 376.259815 204.784571 L 374.631215 205.582471 L 373.008515 206.334871 L 371.391215 207.042071 L 369.779315 207.704171 L 368.172415 208.321171 L 366.570415 208.893371 L 364.973015 209.420871 L 363.380015 209.903771 L 361.791015 210.342271 L 360.206115 210.736471 L 358.624815 211.086471 L 357.046915 211.392471 L 355.472315 211.654571 L 353.900615 211.872971 L 352.331715 212.047771 L 350.765415 212.179071 L 349.201315 212.267071 L 347.639315 212.311971 L 346.079215 212.313771 L 344.520615 212.272671 L 342.963415 212.188871 L 341.407415 212.062371 L 339.852315 211.893471 L 338.297915 211.682171 L 336.743915 211.428671 L 335.190115 211.133171 L 333.636315 210.795771 L 332.082315 210.416471 L 330.527815 209.995671 L 328.972615 209.533371 L 327.416515 209.029671 L 325.859115 208.484671 L 324.300515 207.898671 L 321.177915 206.604071 L 318.047115 205.146771 L 314.906015 203.528071 L 311.752915 201.748871 L 308.585915 199.810471 L 305.994915 198.118771 L 303.392415 196.328871 L 300.769815 194.434671 L 298.118915 192.429871 L 295.431215 190.308171 L 292.698515 188.063271 L 289.912215 185.688871 L 287.064215 183.178871 L 284.146015 180.526771 L 281.149215 177.726471 L 278.065515 174.771771 L 274.886615 171.656171 L 271.604015 168.373571 L 268.209415 164.917571 L 261.050715 157.460671 L 256.247515 152.352671 L 258.992915 152.352671 Z M 80.103915 1.015071 L 81.643015 1.071971 L 83.181515 1.171071 L 84.719715 1.312071 L 86.257815 1.494971 L 87.796115 1.719571 L 89.334715 1.985671 L 90.874015 2.293171 L 92.414015 2.641771 L 93.955115 3.031471 L 95.497515 3.461971 L 97.041415 3.933271 L 98.586915 4.445071 L 101.684115 5.589571 L 104.790815 6.894471 L 107.463215 8.137371 L 110.151215 9.495371 L 112.860315 10.971571 L 115.595715 12.568571 L 118.362715 14.289271 L 121.166815 16.136671 L 124.013215 18.113471 L 126.907415 20.222571 L 129.854615 22.466971 L 132.860215 24.849271 L 135.929615 27.372571 L 139.068115 30.039571 L 142.281015 32.853171 L 145.573715 35.816171 L 148.951515 38.931571 L 152.419815 42.202171 L 157.699215 47.360771 L 165.009115 54.665871 L 173.563015 63.300171 L 182.574115 72.446171 L 185.957015 75.892671 L 183.154415 75.892671 L 181.156515 73.857171 L 172.152315 64.717971 L 163.607515 56.092571 L 156.308115 48.797671 L 151.040215 43.650171 L 147.600515 40.406471 L 144.251615 37.317371 L 140.988215 34.380171 L 137.805215 31.591871 L 134.697415 28.949771 L 131.659415 26.450971 L 128.686215 24.092671 L 125.772415 21.871971 L 122.913015 19.786071 L 120.102515 17.832271 L 117.335915 16.007471 L 114.607915 14.309071 L 111.913415 12.734071 L 109.247015 11.279771 L 106.603515 9.943271 L 103.977815 8.721771 L 100.959715 7.454171 L 97.950615 6.342371 L 94.948815 5.387871 L 93.450115 4.969971 L 91.952515 4.591871 L 90.455715 4.253871 L 88.959615 3.955871 L 87.464015 3.698371 L 85.968615 3.481271 L 84.473115 3.304971 L 82.977415 3.169471 L 81.481115 3.074971 L 79.984215 3.021671 L 78.486315 3.009771 L 76.987315 3.039471 L 75.486815 3.110871 L 73.984715 3.224171 L 72.480815 3.379471 L 70.974715 3.577071 L 69.466315 3.817071 L 67.955415 4.099671 L 66.441715 4.424971 L 64.924915 4.793271 L 63.404915 5.204571 L 61.881515 5.659271 L 60.354315 6.157371 L 58.823215 6.699071 L 57.287915 7.284571 L 55.748215 7.914071 L 54.203915 8.587671 L 52.654815 9.305671 L 51.100515 10.068071 L 49.541015 10.875171 L 46.405015 12.623971 L 43.245015 14.553471 L 40.059115 16.665071 L 36.845515 18.960171 L 33.602415 21.440171 L 30.327915 24.106271 L 27.020115 26.960071 L 23.677315 30.002871 L 20.297615 33.235971 L 16.879215 36.660871 L 15.974415 37.607271 L 18.886815 35.274971 L 22.292815 32.708471 L 25.666515 30.329271 L 29.009715 28.136271 L 32.324415 26.128271 L 35.612315 24.304171 L 37.246815 23.460671 L 38.875315 22.662771 L 40.498115 21.910371 L 42.115315 21.203171 L 43.727315 20.541071 L 45.334115 19.924071 L 46.936215 19.351871 L 48.533615 18.824371 L 50.126615 18.341471 L 51.715515 17.902971 L 53.300515 17.508771 L 54.881815 17.158771 L 56.459715 16.852771 L 58.034315 16.590671 L 59.606015 16.372271 L 61.174815 16.197471 L 62.741215 16.066171 L 64.305315 15.978171 L 65.867315 15.933271 L 67.427415 15.931471 L 68.986015 15.972571 L 70.543115 16.056371 L 72.099215 16.182871 L 73.654315 16.351771 L 75.208715 16.563071 L 76.762715 16.816571 L 78.316515 17.112071 L 79.870315 17.449471 L 81.424315 17.828771 L 82.978815 18.249571 L 84.534015 18.711871 L 86.090115 19.215571 L 87.647415 19.760571 L 89.206115 20.346571 L 92.328615 21.641171 L 95.459515 23.098471 L 98.600615 24.717171 L 101.753715 26.496371 L 104.920715 28.434771 L 107.511615 30.126471 L 110.114215 31.916371 L 112.736815 33.810571 L 115.387715 35.815371 L 118.075415 37.937071 L 120.808115 40.181971 L 123.594315 42.556371 L 126.442415 45.066371 L 129.360615 47.718471 L 132.357415 50.518771 L 135.441115 53.473471 L 138.620015 56.589071 L 141.902615 59.871671 L 145.297215 63.327671 L 152.455915 70.784571 L 157.259215 75.892671 L 154.513815 75.892671 L 151.004115 72.160171 L 143.884815 64.744071 L 140.509915 61.307871 L 137.247315 58.044771 L 134.088715 54.948471 L 131.025715 52.012771 L 128.050315 49.231371 L 125.154115 46.598271 L 122.328915 44.107071 L 119.566515 41.751671 L 116.858515 39.525871 L 114.196915 37.423371 L 111.573215 35.437971 L 108.979315 33.563571 L 106.407015 31.793871 L 103.847915 30.122671 L 100.760115 28.232171 L 97.687115 26.496871 L 94.627015 24.917871 L 91.577915 23.496271 L 88.537715 22.233371 L 85.504615 21.130171 L 83.990115 20.638971 L 82.476615 20.188071 L 80.963915 19.777671 L 79.451815 19.408071 L 77.939915 19.079271 L 76.428115 18.791371 L 74.916115 18.544671 L 73.403615 18.339171 L 71.890515 18.175071 L 70.376515 18.052571 L 68.861315 17.971871 L 67.344715 17.932871 L 65.826415 17.935971 L 64.306215 17.981171 L 62.783915 18.068671 L 61.259215 18.198571 L 59.731915 18.371071 L 58.201615 18.586271 L 56.668315 18.844371 L 55.131615 19.145471 L 53.591315 19.489771 L 52.047215 19.877371 L 50.499015 20.308471 L 48.946415 20.783171 L 47.389215 21.301571 L 45.827215 21.863871 L 44.260215 22.470171 L 42.687815 23.120771 L 41.109915 23.815571 L 39.526215 24.554971 L 36.340315 26.167671 L 33.128315 27.960071 L 29.888315 29.933271 L 26.618215 32.088571 L 23.316115 34.426971 L 19.980115 36.949771 L 16.608115 39.658071 L 13.198415 42.553071 L 9.748815 45.635871 L 6.257515 48.907671 L 2.722515 52.369771 L 2.548115 52.514071 L 2.366315 52.610971 L 2.180915 52.664071 L 1.996015 52.677071 L 1.643215 52.596971 L 1.339615 52.399771 L 1.116815 52.114371 L 1.006415 51.769871 L 1.003315 51.584471 L 1.040115 51.395171 L 1.120915 51.205671 L 1.249615 51.019471 L 4.890815 46.757071 L 8.487915 42.693571 L 12.042915 38.827671 L 15.557415 35.158071 L 19.033215 31.683671 L 22.472215 28.402971 L 25.876115 25.314671 L 29.246815 22.417671 L 32.585915 19.710471 L 35.895215 17.191971 L 39.176715 14.860771 L 42.431915 12.715571 L 45.662815 10.755171 L 48.871115 8.978171 L 50.467415 8.158071 L 52.058615 7.383371 L 53.645115 6.653871 L 55.227115 5.969471 L 56.804715 5.329971 L 58.378315 4.735171 L 59.948015 4.184971 L 61.514115 3.679071 L 63.076715 3.217571 L 64.636115 2.800071 L 66.192615 2.426571 L 67.746315 2.096771 L 69.297515 1.810671 L 70.846415 1.567971 L 72.393315 1.368471 L 73.938215 1.212171 L 75.481515 1.098871 L 77.023515 1.028371 L 78.564215 1.000471 Z" transform="scale(1.000000,1.000000) translate(59.877585,59.897329)" fill="#000000" opacity="1.000000"></path>
        <path d="M 56.868400 60.346000 Q 57.246400 59.968000 57.775600 59.816800 Q 58.002400 59.892400 58.229200 60.043600 Q 58.456000 60.194800 58.947400 60.761800 Q 59.438800 61.328800 59.968000 61.480000 Q 60.497200 61.177600 60.724000 61.026400 Q 60.724000 58.304800 60.383800 56.225800 Q 60.043600 54.146800 58.758400 47.720800 L 56.188000 33.130000 Q 56.036800 33.054400 55.696600 33.016600 Q 55.356400 32.978800 54.902800 32.752000 L 56.036800 30.937600 L 54.524800 17.178400 L 54.071200 4.553200 L 54.676000 5.611600 L 55.129600 15.968800 Q 55.583200 21.109600 57.700000 31.996000 L 56.944000 17.329600 L 56.188000 3.268000 Q 55.961200 2.814400 55.356400 2.738800 Q 55.129600 2.814400 54.940600 2.852200 Q 54.751600 2.890000 54.071200 3.305800 Q 53.390800 3.721600 52.861600 3.797200 Q 52.483600 3.797200 52.030000 2.965600 L 51.425200 2.285200 Q 51.122800 1.831600 50.593600 1.907200 L 50.140000 4.704400 L 49.988800 7.879600 L 50.518000 15.515200 L 51.047200 23.150800 L 51.878800 27.838000 L 52.181200 31.013200 Q 52.181200 32.147200 51.954400 33.432400 Q 51.500800 33.356800 51.122800 32.298400 Q 50.971600 31.315600 50.744800 31.164400 L 51.047200 30.862000 L 50.140000 29.652400 L 49.081600 19.446400 L 48.325600 7.955200 Q 48.325600 4.326400 48.628000 1.907200 L 48.174400 1.756000 L 47.720800 1.831600 Q 47.494000 2.663200 46.813600 3.457000 Q 46.133200 4.250800 45.906400 4.931200 Q 45.755200 4.780000 45.377200 3.041200 Q 45.150400 1.453600 44.092000 1.151200 Q 43.865200 1.151200 43.487200 1.151200 Q 43.109200 1.151200 42.731200 1.151200 L 41.219200 1.000000 Q 40.463200 1.000000 40.160800 1.151200 L 40.236400 2.134000 L 40.236400 2.890000 L 40.236400 4.931200 Q 40.236400 6.821200 40.463200 8.182000 Q 40.690000 9.542800 41.748400 10.601200 L 40.992400 12.113200 L 42.806800 27.535600 L 42.126400 27.989200 L 40.538800 28.064800 L 38.724400 28.140400 Q 34.490800 28.140400 29.274400 27.233200 L 20.882800 25.721200 Q 19.370800 22.999600 18.614800 18.312400 L 17.329600 10.147600 Q 17.102800 8.635600 16.951600 7.388200 Q 16.800400 6.140800 16.498000 5.233600 Q 16.271200 3.872800 15.364000 2.285200 L 13.474000 3.116800 L 12.415600 1.226800 L 11.130400 2.285200 Q 11.130400 4.931200 12.718000 11.243800 Q 14.305600 17.556400 14.305600 19.900000 L 14.078800 22.470400 Q 12.566800 20.731600 12.566800 16.800400 Q 12.566800 12.793600 11.735200 11.206000 L 10.374400 5.309200 Q 9.920800 2.890000 8.786800 1.151200 Q 8.635600 1.378000 8.030800 1.529200 L 6.896800 1.378000 Q 6.745600 1.453600 6.556600 1.529200 Q 6.367600 1.604800 6.140800 1.831600 Q 6.140800 3.494800 6.670000 6.972400 L 7.199200 11.962000 Q 7.199200 13.096000 6.972400 14.230000 L 6.140800 13.020400 L 4.175200 1.226800 L 3.494800 1.226800 Q 3.268000 1.604800 3.268000 2.058400 L 3.570400 3.041200 Q 3.268000 3.494800 2.965600 3.646000 Q 2.587600 3.646000 2.398600 2.663200 Q 2.209600 1.680400 1.831600 1.680400 L 1.151200 1.907200 L 1.000000 3.268000 Q 1.907200 4.024000 2.360800 4.553200 L 1.453600 5.762800 L 4.704400 22.394800 L 7.804000 42.050800 Q 8.560000 41.672800 8.560000 40.387600 L 8.484400 39.102400 Q 8.484400 38.346400 8.333200 37.892800 Q 8.333200 32.978800 6.518800 25.078600 Q 4.704400 17.178400 4.099600 13.625200 Q 3.494800 10.072000 3.494800 7.879600 Q 5.006800 12.566800 6.443200 19.824400 L 8.711200 30.937600 Q 8.786800 31.542400 9.164800 33.697000 Q 9.542800 35.851600 9.542800 37.363600 Q 9.542800 39.934000 10.828000 41.446000 Q 10.601200 42.504400 10.450000 43.600600 Q 10.298800 44.696800 10.298800 45.982000 L 10.601200 51.047200 L 10.903600 56.112400 Q 10.903600 57.322000 10.828000 57.700000 Q 10.223200 55.810000 9.769600 51.652000 L 8.938000 43.562800 Q 8.257600 43.411600 7.804000 43.411600 L 8.938000 54.524800 L 9.089200 59.514400 Q 9.769600 60.421600 11.206000 60.421600 Q 12.415600 60.421600 12.793600 60.346000 L 13.474000 59.816800 Q 13.927600 60.119200 14.230000 60.572800 Q 14.532400 61.026400 15.288400 60.799600 L 15.742000 58.909600 L 15.893200 56.868400 L 15.817600 54.524800 L 15.817600 53.617600 Q 15.817600 53.164000 15.666400 52.105600 Q 15.666400 50.518000 15.968800 49.384000 Q 16.195600 49.988800 16.422400 51.349600 Q 16.422400 52.408000 16.724800 53.315200 L 17.934400 53.315200 Q 17.934400 50.366800 16.951600 44.167600 Q 15.968800 37.968400 15.968800 36.456400 Q 16.724800 36.758800 16.951600 38.875600 Q 16.951600 39.782800 17.102800 40.538800 Q 17.254000 41.294800 17.405200 41.597200 L 19.748800 60.799600 Q 20.126800 61.102000 20.315800 61.102000 Q 20.504800 61.102000 20.656000 60.724000 L 21.109600 59.590000 L 21.260800 58.380400 L 21.185200 56.792800 Q 21.185200 55.885600 21.034000 55.280800 Q 21.034000 54.222400 21.412000 53.542000 Q 21.865600 54.373600 22.092400 56.490400 Q 22.092400 58.531600 22.924000 59.816800 L 23.755600 58.985200 L 23.831200 59.968000 L 24.889600 58.985200 L 22.016800 38.119600 L 23.075200 37.136800 Q 25.418800 37.817200 34.566400 38.648800 L 43.940800 39.404800 L 44.772400 40.538800 Q 44.999200 42.958000 45.301600 46.019800 Q 45.604000 49.081600 46.095400 52.105600 Q 46.586800 55.129600 47.342800 57.700000 Q 48.098800 60.270400 48.930400 60.346000 L 48.930400 57.019600 Q 49.308400 57.170800 49.724200 59.023000 Q 50.140000 60.875200 51.576400 60.648400 Q 51.576400 57.019600 50.064400 49.006000 L 48.628000 40.463200 L 48.930400 39.934000 Q 49.006000 40.236400 49.724200 40.727800 Q 50.442400 41.219200 50.442400 41.672800 Q 50.366800 41.899600 50.329000 42.088600 Q 50.291200 42.277600 49.913200 42.580000 L 51.576400 53.239600 Q 52.256800 57.473200 54.071200 61.026400 L 54.600400 60.799600 Q 54.600400 57.397600 54.222400 55.054000 Q 53.844400 52.710400 53.164000 49.270600 Q 52.483600 45.830800 51.274000 40.463200 L 52.559200 39.404800 Q 53.542000 39.858400 53.995600 40.765600 Q 54.449200 41.672800 54.449200 42.882400 L 54.373600 44.394400 Q 54.373600 45.452800 54.222400 46.057600 L 55.734400 54.827200 Q 56.263600 55.054000 56.339200 55.583200 Q 56.339200 56.944000 56.188000 57.700000 Q 56.641600 58.909600 56.868400 60.346000 Z M 16.724800 60.497200 Q 16.951600 60.724000 17.140600 60.799600 Q 17.329600 60.875200 17.480800 60.950800 Q 17.934400 60.950800 18.161200 60.270400 Q 18.388000 59.590000 18.388000 58.682800 L 18.085600 53.844400 Q 17.405200 54.071200 16.951600 54.751600 Q 16.800400 55.280800 16.649200 56.566000 L 16.724800 58.531600 Q 16.724800 58.985200 16.724800 59.287600 Q 16.724800 59.590000 16.800400 59.665600 Q 16.800400 60.270400 16.724800 60.497200 Z M 62.236000 60.346000 L 62.840800 59.514400 Q 62.840800 54.676000 61.328800 47.947600 L 58.002400 32.752000 L 57.548800 32.752000 L 59.438800 45.755200 Z M 36.305200 37.817200 Q 36.758800 37.968400 37.363600 37.741600 Q 38.044000 37.514800 38.119600 37.892800 L 37.439200 38.119600 L 36.758800 38.422000 Q 36.305200 38.119600 36.305200 37.817200 Z M 52.710400 38.119600 L 51.954400 38.346400 Q 51.576400 38.044000 51.576400 37.817200 L 51.727600 36.758800 Q 51.727600 36.154000 51.274000 36.002800 Q 51.425200 35.700400 52.030000 35.398000 Q 52.408000 35.398000 52.786000 36.078400 L 53.088400 37.136800 Z M 38.951200 36.910000 Q 35.776000 36.910000 33.054400 36.607600 Q 30.332800 36.305200 28.064800 35.624800 L 29.425600 35.473600 Q 30.559600 35.473600 32.147200 35.776000 L 34.793200 36.078400 L 35.927200 36.002800 L 37.590400 35.927200 Q 38.875600 35.927200 39.253600 35.851600 Q 40.992400 35.851600 41.975200 36.607600 L 40.841200 37.061200 L 39.858400 37.590400 Q 39.404800 37.590400 38.951200 36.910000 Z M 26.250400 37.439200 Q 25.948000 37.288000 23.982400 36.910000 Q 22.394800 36.910000 21.865600 36.002800 L 23.377600 35.927200 Q 24.436000 35.927200 25.494400 35.927200 Q 26.326000 36.154000 27.308800 36.305200 Q 28.291600 36.456400 31.164400 37.439200 Z M 42.958000 36.456400 Q 42.731200 36.305200 42.580000 35.700400 Q 42.806800 35.246800 42.958000 35.095600 L 43.638400 35.624800 Q 43.336000 35.927200 43.336000 36.078400 Q 43.336000 36.456400 42.958000 36.456400 Z M 15.742000 35.095600 L 15.742000 33.583600 Q 15.968800 33.734800 16.120000 34.264000 Q 16.044400 34.642000 15.968800 34.717600 L 16.044400 35.095600 Z M 15.061600 31.996000 L 15.968800 32.449600 Q 15.817600 32.752000 15.364000 32.525200 Z M 42.580000 32.449600 Q 33.734800 32.449600 29.085400 31.693600 Q 24.436000 30.937600 20.882800 29.501200 L 22.092400 29.350000 Q 23.226400 29.350000 25.418800 29.879200 L 28.442800 30.484000 Q 29.501200 30.484000 29.803600 30.332800 Q 30.257200 30.332800 31.013200 29.803600 L 42.806800 30.862000 L 42.277600 31.164400 L 43.109200 31.996000 Z M 15.061600 28.669600 L 15.061600 27.989200 L 15.742000 27.989200 Q 15.893200 28.140400 15.931000 28.253800 Q 15.968800 28.367200 15.968800 28.442800 Q 15.439600 28.442800 15.061600 28.669600 Z M 44.621200 17.858800 Q 44.016400 15.666400 43.487200 12.718000 L 42.580000 7.048000 Q 43.260400 6.670000 43.411600 5.384800 L 43.411600 4.477600 Q 43.411600 3.570400 43.638400 3.116800 Z M 15.968800 48.552400 L 15.742000 47.418400 Z M 15.288400 42.958000 L 15.364000 44.923600 Z M 45.074800 19.975600 L 44.999200 19.068400 Z" transform="scale(1.000000,1.000000) translate(377.298084,142.780000)" fill="#000000" opacity="1.000000"></path>
        <path d="M 25.204495 61.418054 L 26.264461 58.011021 Q 26.415885 58.238156 26.491597 58.578860 Q 26.567308 58.919563 26.643020 59.222410 Q 26.643020 60.358088 27.400139 60.433800 Q 27.778698 60.055241 27.778698 58.541004 Q 27.173003 58.541004 26.718732 58.389580 L 28.157257 56.799631 L 25.355919 35.373179 Q 23.993106 24.243537 23.993106 15.460963 L 24.674512 14.779556 L 32.245697 15.233827 L 39.211187 15.763810 L 41.028271 15.763810 Q 41.331119 15.763810 41.709678 15.763810 Q 42.088237 15.763810 43.526762 15.460963 L 44.056745 14.628132 Q 43.829609 14.173861 43.299627 14.173861 L 42.012525 14.400997 Q 41.558254 14.400997 41.179695 13.795302 Q 41.406830 13.568167 43.072491 13.189607 Q 44.662440 12.962472 44.662440 12.205353 Q 44.662440 11.675370 44.283881 11.069676 L 43.678186 10.539693 L 37.999797 10.993964 L 31.488578 11.069676 L 29.671494 11.069676 L 32.018561 10.539693 L 34.668476 10.388269 L 37.166967 10.388269 Q 39.589746 10.388269 40.914703 10.123278 Q 42.239661 9.858286 43.678186 8.646897 Q 43.678186 7.511219 42.315373 7.284083 Q 40.952559 7.056948 41.179695 5.921270 L 33.759934 5.164152 Q 34.365629 4.558457 37.242679 4.558457 Q 40.195441 4.558457 40.195441 2.892796 L 39.968305 1.984254 Q 39.362610 1.000000 37.848374 1.000000 L 36.864120 1.075712 L 35.804154 1.151424 Q 35.122747 1.529983 33.873502 1.832830 Q 32.624256 2.135678 31.564290 2.135678 L 29.217223 2.059966 Q 27.702986 2.059966 26.870156 1.908542 Q 25.658766 1.908542 24.636656 2.135678 Q 23.614546 2.362813 22.630292 3.119932 L 20.737496 2.287101 Q 19.904666 2.059966 18.920412 2.059966 Q 17.254751 2.059966 15.967650 3.119932 L 15.134819 2.059966 L 9.380719 1.378559 L 3.626619 1.075712 Q 2.339517 1.075712 1.960958 1.151424 L 1.052416 1.151424 Q 0.825280 2.438525 1.582399 2.892796 L 3.020924 3.195644 L 4.383737 3.119932 Q 5.292279 3.119932 5.822262 2.968508 Q 6.882228 2.968508 7.563635 3.877050 L 7.942194 3.498491 Q 8.093618 4.331321 6.730804 4.331321 Q 5.443703 4.331321 4.989432 5.088440 L 6.049398 6.224117 Q 5.897974 6.451253 5.292279 6.526965 L 4.308025 6.526965 Q 3.853754 6.526965 3.626619 6.905524 Q 3.399483 8.344049 5.292279 8.609041 Q 7.185076 8.874032 7.260787 9.933998 L 7.185076 10.766828 Q 6.730804 11.221099 6.276533 11.410379 Q 5.822262 11.599659 6.049398 12.356777 L 7.109364 12.735336 Q 7.866482 12.962472 7.942194 13.568167 L 9.759278 26.212045 L 11.954922 42.262957 L 12.712040 55.285394 L 12.636328 56.269648 L 12.560617 57.632462 Q 12.560617 58.995275 13.393447 59.600970 Q 13.999142 59.600970 14.301989 58.843851 L 14.756260 57.783885 L 16.270497 59.676681 Q 17.179039 58.086733 17.179039 55.815377 Q 17.179039 54.528276 16.724768 51.726938 Q 16.270497 48.925599 16.270497 47.487074 Q 15.361955 42.641516 14.301989 30.376197 L 13.166311 16.218081 L 13.923430 16.899488 L 15.664802 29.770502 L 17.481887 45.367142 L 19.071835 60.055241 Q 19.298971 60.736647 19.904666 60.812359 Q 20.358937 60.585224 20.358937 60.433800 L 21.116055 59.676681 L 21.570326 60.433800 L 22.251733 59.676681 L 22.630292 60.888071 Q 23.235987 60.433800 23.879538 61.039495 Q 24.523088 61.645189 25.204495 61.418054 Z M 21.570326 54.906835 L 21.948886 54.906835 L 22.176021 57.481038 Z M 23.008852 55.739665 Q 22.478869 55.058259 22.478869 53.619734 L 22.554580 52.786903 L 22.630292 52.181209 Z M 22.251733 51.121243 Q 21.343191 46.654244 20.813208 41.581550 Q 20.283225 36.508856 20.283225 31.739010 Z M 19.223259 46.654244 L 18.844700 45.972837 Q 19.450395 44.988583 20.283225 45.367142 L 19.980378 46.124261 Q 19.980378 46.729956 19.223259 46.654244 Z M 24.220241 41.430126 Q 24.220241 41.051567 24.144529 40.180881 Q 24.068817 39.310195 23.841682 38.098805 L 23.463123 35.070331 L 23.463123 34.161789 Z M 23.008852 30.527620 L 20.358937 15.460963 L 21.116055 14.779556 Q 21.116055 15.915234 21.343191 17.618750 Q 21.570326 19.322267 22.327445 23.599986 Q 23.084563 27.877706 23.084563 29.164807 Z M 19.223259 23.713554 L 19.526107 28.483400 L 18.844700 22.047893 Z M 18.011870 17.202335 L 18.239005 17.050912 L 18.541853 21.139351 L 18.314717 21.290775 Z M 35.652730 7.965490 L 37.394102 7.132660 L 38.908339 6.829812 Q 39.589746 6.829812 39.968305 7.208371 Q 39.135475 7.738354 37.772662 7.738354 Z M 10.289261 6.602677 L 10.289261 5.769846 Q 10.516397 5.315575 10.667820 5.164152 Q 12.939176 5.164152 14.377701 6.905524 L 12.636328 7.056948 Q 11.576363 7.056948 10.289261 6.602677 Z M 14.226277 5.391287 Q 15.059108 5.618423 15.967650 5.618423 Q 17.254751 5.466999 17.860446 5.088440 Q 17.179039 4.407033 16.270497 4.407033 L 14.983396 4.634169 L 13.696294 4.861304 Q 12.712040 4.709881 12.333481 4.482745 Z M 18.541853 5.391287 L 18.314717 5.088440 Q 18.768988 5.088440 19.033980 5.088440 Q 19.298971 5.088440 19.374683 5.164152 Q 18.768988 5.164152 18.541853 5.391287 Z M 24.674512 5.164152 L 24.901648 5.391287 L 23.008852 5.542711 Z M 21.116055 58.692427 L 21.116055 57.329614 Z M 23.311699 58.011021 L 23.160275 56.951055 Z M 12.182057 39.310195 L 12.333481 40.824432 Z M 12.030634 37.795958 L 11.879210 36.735992 Z M 23.311699 31.966145 L 23.463123 33.631806 Z M 17.330463 25.379215 L 17.179039 24.546384 Z M 16.270497 17.732318 L 17.179039 23.713554 Z M 10.137838 20.609368 L 9.986414 18.565149 Z M 32.548544 5.164152 L 30.655748 5.542711 Z" transform="scale(1.000000,1.000000) translate(327.519604,142.780000)" fill="#000000" opacity="1.000000"></path>
        <path d="M 20.907685 60.950138 L 30.293817 61.177222 L 37.787584 61.480000 Q 43.388986 61.480000 47.779274 60.647359 Q 47.779274 59.739024 48.309136 59.133467 Q 48.838999 59.436245 49.141777 59.739024 L 49.898723 60.268886 Q 50.277196 59.966108 50.428586 59.663329 L 51.715394 60.344581 L 53.380676 60.950138 Q 53.607760 60.268886 53.607760 59.663329 Q 53.607760 58.906383 53.229287 58.073742 L 52.775119 56.711239 L 52.245257 56.711239 L 52.093867 54.970263 Q 47.098023 45.811214 40.209812 36.273692 L 25.903529 17.879900 L 26.887559 16.895870 Q 32.413267 16.895870 36.954944 16.138924 L 48.082053 13.943780 L 48.838999 13.111139 Q 49.141777 12.959750 48.990388 12.202804 Q 44.221627 14.019474 37.560501 14.927810 L 24.919499 16.517397 Q 23.935469 16.290313 23.859775 15.533367 Q 24.086859 15.079199 24.238248 14.927810 L 48.990388 10.915995 Q 48.990388 10.537522 48.460526 10.310438 L 47.476496 10.234743 L 44.600100 10.840300 Q 43.388986 11.067384 42.480651 11.597247 L 42.102178 11.294468 Q 42.859124 10.234743 44.600100 9.402103 L 47.930663 8.266683 Q 47.325106 6.601402 46.113992 6.601402 Q 45.584130 6.601402 44.032390 7.282653 Q 42.480651 7.963905 41.723705 7.963905 Q 41.269537 7.963905 40.815369 7.736821 Q 41.496621 6.828486 43.086208 6.147234 L 45.811214 5.238899 Q 45.129962 4.557647 43.388986 4.330563 Q 41.799399 4.330563 41.118148 3.800701 L 29.991039 6.374318 Q 24.238248 7.434043 19.318098 7.434043 Q 17.047259 7.434043 14.927810 7.206959 Q 12.808360 6.979875 10.613217 6.450013 L 12.127109 5.768761 L 22.043104 5.390288 Q 24.313942 5.390288 26.925407 5.125357 Q 29.536871 4.860426 32.564656 4.330563 Q 32.867434 4.633342 33.094518 4.633342 Q 33.548686 4.633342 34.002854 3.952090 Q 34.381327 3.725006 34.759800 3.725006 L 35.895219 3.800701 Q 36.349387 3.800701 36.879249 3.270839 L 37.787584 3.422228 Q 38.771615 3.422228 39.831339 2.892365 L 42.102178 1.908335 Q 42.329262 1.605557 42.140025 1.416320 Q 41.950788 1.227084 41.118148 1.000000 L 27.720200 3.422228 Q 20.680601 4.406258 15.306283 4.406258 Q 13.186834 4.406258 11.370163 4.330563 Q 9.553492 4.254869 8.039599 4.027785 Q 6.147234 4.027785 4.027785 3.573617 Q 2.135419 3.043755 1.151389 2.816671 Q 0.924305 3.497922 1.681252 3.952090 L 3.195144 4.936120 L 7.661126 10.386133 L 7.206959 10.764606 Q 6.298623 10.234743 4.519800 8.304531 Q 2.740976 6.374318 1.378473 5.768761 L 1.000000 6.450013 L 14.625031 20.831990 L 25.070889 32.943129 Q 29.915344 38.998698 34.002854 46.189687 L 34.381327 46.189687 Q 32.110488 41.269537 28.855620 36.500776 L 22.345882 27.568811 L 13.565307 16.895870 L 14.625031 16.895870 Q 20.983379 22.118798 26.660476 30.520901 L 37.484806 46.719549 Q 37.711890 47.703579 36.954944 48.233442 L 36.046608 47.854969 Q 35.516746 47.703579 35.138273 47.249412 L 34.002854 48.384831 L 25.525056 48.157747 L 11.294468 46.719549 L 13.262528 47.552190 Q 12.884055 48.309136 11.672941 48.309136 Q 10.991690 48.309136 9.704881 48.006358 L 8.115294 47.703579 Q 7.206959 47.703579 7.206959 48.611915 Q 7.206959 49.066083 7.661126 50.352891 L 8.569462 50.882753 Q 9.250713 51.109837 9.477797 51.564005 Q 9.477797 51.942478 9.061477 52.737272 Q 8.645156 53.532065 8.645156 54.213317 Q 10.461827 54.667484 14.625031 55.121652 Q 16.441702 55.121652 17.766358 55.348736 Q 19.091014 55.575820 20.794143 55.954293 Q 22.497272 56.332766 25.184431 56.597697 Q 27.871589 56.862628 31.050763 56.862628 Q 34.381327 56.862628 36.462929 56.976170 Q 38.544531 57.089712 39.528561 57.316796 Q 38.544531 57.543880 37.863279 57.657422 Q 37.182028 57.770964 36.500776 57.770964 L 32.867434 57.846658 L 25.827835 57.543880 L 19.318098 57.316796 L 10.461827 56.332766 Q 9.553492 56.332766 8.796546 56.900476 Q 8.039599 57.468185 7.282653 58.300826 Q 9.704881 59.436245 13.527459 60.193191 Q 17.350038 60.950138 20.907685 60.950138 Z M 44.751489 57.316796 L 43.994543 57.241101 Q 43.237597 57.241101 42.632040 57.392491 L 41.345232 57.543880 Q 40.209812 57.543880 40.134118 56.332766 Q 40.588285 56.105682 41.723705 55.954293 L 43.010513 56.029987 Q 44.145932 56.105682 44.448711 56.029987 Z M 43.464681 49.747334 L 42.934819 50.201502 L 40.815369 47.249412 Q 40.815369 46.870939 40.361202 45.735519 L 39.907034 44.751489 L 40.134118 44.070238 Q 40.512591 44.675795 41.534468 46.000451 Q 42.556345 47.325106 45.054268 50.542128 Q 47.552190 53.759149 48.763304 57.165407 Q 47.703579 56.105682 46.113992 53.834844 Z M 25.070889 55.197347 L 21.210463 54.516095 Q 19.772265 54.516095 18.409762 54.516095 Q 17.122954 54.289011 15.609061 54.137622 Q 14.095169 53.986233 12.656971 53.380676 Q 15.230588 53.380676 16.366008 53.494218 Q 17.501427 53.607760 20.226433 53.986233 L 27.038949 54.970263 L 25.752140 54.970263 Z M 25.600751 53.683454 L 11.672941 52.018173 L 24.086859 52.472340 L 34.078548 52.926508 L 40.285507 52.699424 L 40.134118 53.380676 Q 38.771615 53.532065 38.090363 53.607760 Q 37.409111 53.683454 35.743830 53.683454 Q 33.170213 53.683454 32.867434 53.759149 L 29.234093 53.683454 Z M 35.138273 49.520250 L 32.716045 49.747334 L 30.445207 49.823029 Q 28.628536 49.823029 28.098673 49.747334 Q 27.341727 49.747334 26.282003 49.217472 L 27.493116 49.293166 Q 28.931314 49.293166 30.369512 49.141777 Q 32.261877 49.141777 32.716045 48.990388 Q 33.700075 48.990388 35.062578 49.217472 Z M 36.879249 50.050113 Q 36.727860 49.898723 36.803554 49.217472 Q 37.030638 48.838999 37.484806 49.066083 Q 38.014668 48.838999 38.317447 49.066083 Q 38.544531 49.293166 38.317447 49.520250 L 37.711890 49.823029 Q 37.257722 50.050113 36.879249 50.050113 Z M 19.393792 48.687610 L 20.453517 48.536220 Q 22.118798 48.536220 23.405607 49.217472 Q 22.345882 49.217472 21.210463 49.444556 Q 20.075044 49.444556 19.393792 48.687610 Z M 38.166058 42.102178 L 37.938974 41.193842 Q 37.938974 40.739675 38.317447 40.739675 Q 38.544531 40.966758 38.620225 41.496621 Q 38.317447 41.950788 38.166058 42.102178 Z M 35.516746 38.468836 L 34.835494 37.257722 L 35.365357 36.727860 Q 36.197997 37.333417 36.197997 37.787584 Q 36.197997 38.468836 35.516746 38.468836 Z M 36.954944 34.305632 Q 34.608411 31.202153 29.158398 25.297972 L 22.270188 17.652816 L 30.975069 26.054919 Q 34.305632 29.536871 37.182028 34.078548 Z M 12.127109 15.381977 L 11.975720 14.549337 L 12.354193 14.927810 L 12.278498 15.154894 Z M 18.636846 10.764606 L 18.409762 10.613217 L 37.182028 7.736821 Q 31.429237 9.402103 27.568811 10.121202 Q 23.708385 10.840300 20.907685 10.840300 Q 19.166708 10.840300 18.636846 10.764606 Z M 37.484806 5.920150 L 28.174368 8.039599 Q 23.405607 8.947935 19.545181 8.947935 Q 15.381977 8.947935 12.127109 7.963905 Q 20.150738 7.963905 25.903529 7.434043 Q 28.931314 7.434043 31.240000 7.017722 Q 33.548686 6.601402 37.787584 5.465982 L 37.787584 5.768761 Z M 35.138273 55.500125 L 36.197997 55.348736 Z" transform="scale(1.000000,1.000000) translate(268.863844,142.780000)" fill="#000000" opacity="1.000000"></path>
        <path d="M 36.758800 60.724000 Q 37.363600 61.328800 38.119600 61.480000 Q 39.253600 61.480000 39.253600 59.438800 L 39.178000 58.758400 L 39.707200 59.816800 Q 40.085200 60.648400 40.614400 60.875200 Q 40.614400 58.456000 38.951200 54.713800 Q 37.288000 50.971600 37.061200 49.006000 Q 37.439200 49.006000 38.044000 50.253400 Q 38.648800 51.500800 39.178000 51.727600 Q 39.631600 52.634800 40.312000 55.885600 Q 40.841200 58.985200 43.033600 60.572800 L 44.923600 58.758400 L 45.226000 59.060800 Q 45.906400 58.834000 46.208800 58.229200 Q 46.511200 57.851200 46.360000 57.019600 L 45.906400 57.170800 Q 45.604000 56.641600 45.377200 56.301400 Q 45.150400 55.961200 45.226000 55.583200 L 46.360000 56.188000 Q 45.226000 50.896000 43.184800 46.133200 L 37.363600 33.886000 Q 33.432400 26.099200 31.920400 22.470400 L 25.872400 11.357200 L 21.412000 2.663200 Q 20.958400 1.604800 19.673200 1.604800 Q 18.539200 1.604800 18.161200 1.302400 Q 18.161200 1.831600 18.236800 2.058400 Q 18.463600 2.512000 18.161200 2.814400 L 16.120000 1.302400 Q 16.044400 2.436400 17.065000 4.288600 Q 18.085600 6.140800 18.085600 6.972400 Q 18.085600 7.426000 17.858800 8.106400 L 16.195600 5.762800 Q 14.834800 4.024000 14.834800 3.116800 Q 14.834800 2.512000 15.137200 1.982800 Q 14.759200 2.663200 14.230000 2.663200 Q 14.078800 2.587600 13.700800 2.398600 Q 13.322800 2.209600 12.453400 1.604800 Q 11.584000 1.000000 11.130400 1.000000 L 14.608000 6.443200 Q 17.632000 10.903600 18.312400 13.700800 L 18.010000 14.230000 Q 17.178400 13.398400 13.927600 8.182000 Q 10.676800 2.965600 8.711200 1.302400 Q 9.618400 4.402000 12.680200 9.391600 Q 15.742000 14.381200 16.422400 15.817600 L 16.271200 17.254000 Q 12.415600 22.168000 9.467200 28.896400 L 4.855600 40.160800 L 1.000000 55.129600 Q 1.756000 55.205200 1.831600 55.961200 L 1.604800 57.322000 Q 1.756000 57.851200 1.907200 58.002400 L 10.147600 34.415200 Q 9.845200 35.927200 8.786800 39.329200 L 7.426000 44.318800 L 8.560000 44.318800 Q 10.374400 38.346400 13.058200 32.638600 Q 15.742000 26.930800 19.446400 22.016800 L 19.748800 23.150800 L 15.364000 31.466800 L 11.508400 40.085200 L 6.972400 51.425200 Q 6.745600 50.291200 7.388200 48.741400 Q 8.030800 47.191600 8.182000 46.624600 Q 8.333200 46.057600 8.408800 45.301600 L 7.426000 45.301600 L 4.704400 53.239600 Q 4.326400 54.524800 4.099600 55.961200 Q 3.872800 57.397600 3.872800 58.909600 Q 4.477600 58.909600 4.780000 58.153600 Q 5.082400 57.397600 5.536000 57.170800 Q 5.762800 57.397600 5.536000 58.078000 Q 5.309200 58.607200 5.611600 58.909600 L 6.594400 58.909600 L 6.745600 59.363200 L 8.862400 56.868400 Q 8.862400 57.624400 9.240400 58.002400 L 10.147600 58.909600 L 11.130400 57.170800 Q 11.584000 57.473200 11.659600 58.607200 Q 11.659600 59.892400 12.113200 60.346000 L 12.566800 60.346000 Q 13.700800 53.164000 15.212800 48.061000 Q 16.724800 42.958000 18.010000 39.631600 Q 19.295200 36.305200 20.731600 33.054400 L 22.999600 30.257200 L 25.494400 33.734800 L 29.047600 42.277600 L 33.205600 51.954400 Z M 43.487200 58.002400 L 42.277600 55.356400 Q 41.143600 52.937200 41.143600 51.727600 Q 41.824000 52.710400 42.542200 54.638200 Q 43.260400 56.566000 43.487200 58.002400 Z M 9.694000 54.600400 L 9.316000 55.583200 L 9.694000 54.146800 Z M 6.745600 52.030000 L 6.594400 52.408000 L 6.745600 51.425200 Z M 26.855200 32.676400 Q 26.855200 33.734800 27.006400 33.961600 L 25.872400 31.693600 L 27.006400 32.147200 Q 27.006400 31.542400 26.363800 30.635200 Q 25.721200 29.728000 25.721200 29.350000 Q 25.872400 28.745200 26.023600 28.594000 Q 26.704000 28.745200 27.157600 30.030400 Q 27.611200 31.315600 28.442800 31.693600 L 28.594000 30.862000 Q 28.594000 30.106000 27.800200 28.745200 Q 27.006400 27.384400 27.157600 26.401600 L 32.752000 37.590400 Q 34.188400 40.690000 35.322400 44.999200 L 31.618000 37.288000 L 28.594000 31.693600 Q 28.367200 31.996000 28.367200 32.222800 Q 28.367200 32.374000 28.442800 32.752000 Q 30.030400 35.851600 31.920400 40.538800 L 35.776000 50.896000 Z M 11.281600 50.291200 L 12.113200 45.982000 Q 12.566800 43.940800 13.700800 42.428800 Q 13.700800 44.167600 13.209400 45.641800 Q 12.718000 47.116000 12.377800 47.947600 Q 12.037600 48.779200 11.281600 50.291200 Z M 39.707200 48.023200 L 38.497600 45.982000 Q 38.044000 44.999200 38.195200 44.167600 L 39.178000 46.360000 Q 39.556000 47.191600 39.707200 48.023200 Z M 42.428800 47.872000 L 38.875600 40.916800 L 36.305200 34.566400 Q 37.514800 36.607600 39.480400 41.370400 Q 41.446000 46.133200 42.428800 47.872000 Z M 6.292000 42.126400 L 5.536000 44.621200 L 5.309200 44.545600 Z M 15.439600 38.195200 Q 15.666400 36.532000 16.271200 35.360200 Q 16.876000 34.188400 17.858800 33.054400 Q 17.556400 34.188400 17.405200 34.604200 Q 17.254000 35.020000 16.800400 35.927200 Q 16.346800 37.288000 15.439600 38.195200 Z M 9.164800 34.415200 L 8.560000 35.020000 L 9.164800 33.961600 Z M 18.539200 31.013200 Q 18.766000 29.728000 19.522000 28.745200 L 21.336400 26.704000 L 21.714400 27.157600 L 20.580400 29.576800 Q 19.673200 30.862000 18.539200 31.013200 Z M 33.734800 29.274400 L 34.415200 30.030400 Q 34.566400 30.181600 34.566400 30.710800 Q 34.112800 30.710800 33.734800 30.106000 Q 33.508000 29.576800 33.734800 29.274400 Z M 24.738400 27.157600 L 25.192000 26.704000 Q 25.116400 26.930800 24.965200 27.006400 Q 24.814000 27.082000 24.738400 27.157600 Z M 32.298400 26.099200 L 32.449600 26.704000 L 31.844800 25.721200 Z M 17.178400 19.144000 L 15.137200 22.016800 L 17.178400 18.539200 Z M 27.157600 17.254000 L 27.762400 18.690400 L 26.704000 16.573600 Z M 19.446400 16.120000 L 18.992800 16.120000 L 18.841600 14.532400 L 19.295200 14.532400 Z M 24.889600 14.230000 L 19.748800 6.821200 L 18.690400 4.402000 Q 18.841600 3.872800 18.992800 3.721600 Z M 26.174800 16.120000 L 26.023600 15.515200 Z" transform="scale(1.000000,1.000000) translate(217.405444,142.780000)" fill="#000000" opacity="1.000000"></path>
        <path d="M 40.815369 61.480000 Q 41.496621 60.874443 41.496621 59.663329 L 41.496621 58.603605 Q 41.496621 58.073742 41.799399 57.695269 Q 42.707735 54.137622 42.934819 53.569912 Q 43.161902 53.002203 43.351139 52.623730 Q 43.540375 52.245257 44.221627 51.185532 L 44.600100 51.639700 Q 44.600100 52.850814 43.691765 55.954293 Q 42.783429 59.057772 42.783429 60.193191 Q 43.161902 60.420275 43.388986 60.420275 L 44.145932 60.495970 L 44.978573 56.559850 Q 45.659825 52.850814 46.719549 51.261227 L 47.173717 52.320951 L 46.113992 56.181377 L 45.281352 60.647359 Q 46.416771 60.798748 46.870939 59.133467 L 49.141777 49.671640 L 54.743179 30.066733 Q 58.527910 18.409762 64.129312 7.736821 Q 64.356395 6.904180 63.523755 5.768761 L 62.842503 6.752791 L 62.009862 5.920150 L 61.404305 7.282653 L 60.495970 6.601402 Q 59.814718 7.509737 58.906383 9.364255 Q 57.998048 11.218773 57.543880 12.127109 Q 57.089712 13.035444 56.862628 13.338223 Q 56.862628 11.748636 57.695269 9.856270 L 59.209161 6.601402 Q 59.057772 6.222929 58.527910 5.995845 L 57.241101 5.920150 L 51.336921 18.409762 L 50.655670 17.274343 L 53.229287 11.294468 Q 54.667484 8.342378 56.257071 5.768761 Q 56.105682 5.390288 56.067835 5.238899 Q 56.029987 5.087509 56.029987 5.011815 Q 56.029987 4.557647 56.522003 3.800701 Q 57.014018 3.043755 57.165407 2.513892 Q 57.165407 1.984030 56.559850 1.605557 Q 54.440401 3.876395 52.093867 9.326408 Q 49.747334 14.776421 48.536220 16.441702 Q 48.006358 16.441702 47.930663 15.911840 Q 48.384831 15.003504 48.384831 14.473642 Q 49.066083 12.429887 50.428586 9.704881 L 53.153592 4.557647 Q 52.850814 4.254869 52.850814 3.725006 Q 52.850814 3.270839 53.153592 2.665282 L 53.910538 1.378473 Q 53.910538 1.000000 52.472340 1.000000 Q 51.412616 2.211114 49.103930 7.736821 Q 46.795244 13.262528 43.086208 14.170864 L 20.075044 14.625031 L 12.959750 3.952090 L 14.625031 7.206959 Q 15.457672 8.872240 15.684756 10.310438 Q 15.079199 9.704881 13.678849 7.131264 Q 12.278498 4.557647 10.840300 3.346533 Q 10.840300 5.465982 13.035444 8.796546 Q 15.230588 12.127109 15.609061 12.997597 Q 15.987534 13.868085 17.425732 13.868085 Q 18.712541 13.868085 18.712541 15.457672 L 17.274343 15.533367 L 16.063229 15.760451 Q 14.700726 15.760451 14.700726 14.246558 Q 14.019474 11.672941 12.959750 10.234743 L 8.720851 3.800701 L 8.266683 4.481952 Q 7.812516 3.952090 7.055569 3.422228 L 5.087509 2.665282 Q 5.844456 3.422228 6.525707 4.595494 Q 7.206959 5.768761 7.812516 7.282653 Q 6.979875 6.752791 5.352441 4.179174 Q 3.725006 1.605557 2.211114 1.605557 L 1.000000 1.832641 Q 1.000000 4.406258 1.227084 5.768761 Q 1.454168 7.131264 2.968060 7.888210 Q 2.968060 8.947935 4.633342 11.559399 Q 6.298623 14.170864 6.298623 15.306283 Q 6.147234 15.457672 5.390288 15.457672 Q 4.784731 15.457672 4.330563 15.306283 Q 3.649312 15.306283 3.649312 16.290313 Q 3.422228 17.425732 5.238899 17.842053 Q 7.055569 18.258373 7.055569 18.636846 Q 7.055569 19.091014 5.995845 20.075044 L 4.633342 20.226433 Q 4.633342 20.756295 5.617372 20.945532 Q 6.601402 21.134768 6.752791 21.361852 Q 6.601402 21.513242 6.450013 22.043104 Q 6.450013 22.648661 6.525707 22.875745 Q 6.222929 23.329912 5.995845 23.329912 Q 6.979875 24.616721 9.099324 24.843805 Q 10.159049 24.843805 11.105232 24.957347 Q 12.051414 25.070889 12.505582 25.146583 L 25.979224 50.958448 L 26.660476 50.277196 Q 27.114643 50.579975 27.190338 51.791089 Q 27.190338 53.153592 27.644506 53.607760 Q 28.552841 55.273041 29.271940 56.219224 Q 29.991039 57.165407 31.429237 56.938323 L 30.369512 57.695269 Q 30.142428 57.922353 30.142428 58.300826 Q 30.445207 58.830688 30.596596 59.057772 L 30.823680 59.209161 L 31.732015 58.073742 L 32.640350 59.511940 L 32.943129 59.511940 Q 31.504931 54.818874 28.779925 49.520250 L 23.329912 38.620225 Q 20.756295 33.321602 20.075044 30.596596 Q 19.620876 28.174368 19.091014 27.455269 Q 18.561151 26.736170 18.409762 26.130613 L 18.636846 25.449362 L 25.146583 39.301477 L 29.915344 49.974418 Q 30.520901 49.671640 30.975069 50.466433 Q 31.429237 51.261227 31.656320 51.791089 Q 31.883404 52.320951 32.261877 53.002203 Q 32.261877 55.045957 33.094518 56.484155 L 35.365357 59.890413 Q 36.879249 59.663329 37.409111 57.241101 Q 37.938974 54.818874 38.695920 54.137622 Q 38.923004 54.818874 38.923004 55.500125 Q 38.923004 56.181377 38.771615 56.824781 Q 38.620225 57.468185 38.544531 57.922353 L 38.166058 59.966108 L 38.468836 61.177222 L 39.604255 59.890413 L 39.982728 60.723054 Q 40.285507 61.480000 40.815369 61.480000 Z M 40.815369 51.639700 Q 41.118148 49.368861 41.572315 47.135870 Q 42.026483 44.902879 42.783429 41.799399 Q 43.540375 38.695920 45.054268 35.062578 L 45.281352 35.516746 L 45.205657 36.727860 L 45.205657 37.636195 Q 45.205657 38.393141 45.054268 38.998698 Q 43.767459 40.512591 42.972666 45.092115 Q 42.177872 49.671640 40.815369 51.639700 Z M 34.381327 49.671640 Q 31.429237 46.492466 29.158398 40.815369 L 25.070889 30.293817 Q 25.752140 31.807710 26.736170 33.472991 L 29.007009 37.333417 L 29.461176 36.500776 L 29.612566 37.863279 Q 29.612566 37.333417 29.461176 37.182028 Q 29.158398 37.863279 29.688260 39.074393 L 30.823680 41.118148 L 31.504931 41.118148 Q 31.277847 41.572315 31.126458 42.177872 Q 31.126458 42.707735 31.732015 43.086208 L 32.261877 42.404956 Q 32.488961 44.221627 33.397297 46.719549 Z M 35.516746 46.341076 L 30.975069 36.273692 L 25.979224 25.676446 Q 26.811865 25.525056 27.341727 25.449362 Q 27.871589 25.373667 28.931314 25.373667 Q 30.823680 25.373667 31.050763 25.297972 L 35.289662 25.297972 L 36.954944 25.297972 Q 37.787584 25.297972 39.301477 24.995194 L 39.150088 24.313942 Q 39.301477 24.086859 39.907034 23.935469 L 40.815369 24.162553 Q 41.118148 24.238248 41.231690 24.238248 Q 41.345232 24.238248 41.648010 24.313942 L 38.695920 35.743830 Z M 23.329912 43.388986 L 24.541026 45.735519 L 24.389637 45.886909 Z M 39.604255 43.086208 L 39.604255 41.420926 L 42.102178 31.959099 Q 43.010513 28.174368 45.054268 25.297972 L 42.102178 35.819524 Z M 50.201502 39.755645 L 49.217472 41.118148 Q 51.791089 30.369512 53.077897 26.622628 Q 54.364706 22.875745 56.559850 19.242403 Z M 21.059074 38.771615 L 21.437547 38.620225 L 21.891715 40.436896 Z M 45.357046 33.548686 Q 45.357046 31.883404 45.962603 30.445207 L 47.552190 26.963254 L 48.233442 27.266033 Q 48.157747 28.552841 47.779274 29.309787 Q 47.552190 30.066733 46.719549 30.293817 Q 47.098023 31.126458 46.303229 32.072641 Q 45.508436 33.018824 45.357046 33.548686 Z M 16.820175 30.899374 L 16.971564 30.747985 L 17.804205 32.716045 L 17.577121 32.867434 Z M 15.987534 29.309787 L 14.170864 26.130613 Q 14.625031 26.433392 15.192741 27.682353 Q 15.760451 28.931314 15.987534 29.309787 Z M 48.384831 26.130613 Q 48.233442 25.979224 48.233442 25.373667 Q 48.460526 25.070889 48.536220 25.033041 Q 48.611915 24.995194 48.687610 24.995194 Q 49.066083 25.222278 48.914693 25.676446 Q 48.763304 26.130613 48.384831 26.130613 Z M 37.711890 24.692416 L 37.711890 24.162553 L 38.166058 24.162553 L 38.393141 24.541026 Z M 26.887559 22.497272 L 25.979224 23.329912 Q 26.054919 22.648661 25.373667 22.572966 Q 24.541026 22.572966 24.541026 22.043104 L 29.082703 21.286158 Q 32.867434 20.680601 35.895219 20.680601 Q 36.425081 21.210463 36.954944 21.210463 Q 37.333417 21.210463 37.787584 20.680601 Q 38.241752 20.907685 39.225782 20.680601 L 40.739675 20.453517 Q 41.193842 20.453517 41.648010 20.680601 Q 41.648010 21.816020 41.420926 22.194493 Z M 17.955594 22.421577 L 17.577121 22.421577 L 17.804205 21.740325 Z M 57.089712 18.561151 Q 57.089712 16.895870 58.565757 14.700726 Q 60.041802 12.505582 60.193191 12.127109 Z M 29.915344 15.609061 L 29.309787 15.760451 L 29.007009 15.306283 Z M 35.895219 15.306283 L 37.106333 15.079199 L 38.393141 14.852115 Q 38.998698 14.852115 39.604255 15.306283 Q 38.695920 15.533367 37.787584 15.533367 Z M 44.145932 15.306283 L 42.783429 15.457672 Q 42.177872 15.457672 41.799399 15.154894 L 44.145932 14.625031 Z M 9.023630 14.473642 Q 7.812516 14.397947 7.661126 13.148986 Q 7.509737 11.900025 6.298623 11.824330 L 2.816671 3.952090 Q 4.027785 4.633342 5.920150 8.380225 Q 7.812516 12.127109 9.931965 12.127109 Q 10.915995 12.127109 11.748636 11.824330 Q 11.672941 12.202804 10.461827 12.921902 Q 9.250713 13.641001 9.023630 14.473642 Z M 10.537522 9.553492 L 10.083354 9.553492 L 9.250713 8.493767 Z M 57.468185 7.736821 L 58.225131 6.752791 L 58.225131 7.282653 Q 58.073742 7.661126 57.998048 7.736821 Q 57.619574 7.736821 57.468185 7.736821 Z M 34.532716 47.854969 L 34.381327 47.249412 Z" transform="scale(1.000000,1.000000) translate(148.044573,142.780000)" fill="#000000" opacity="1.000000"></path>
        <path d="M 41.571640 61.740200 Q 43.369612 61.192991 44.698548 60.528523 Q 46.027484 59.864055 47.981802 58.417860 Q 49.936120 56.971665 50.639675 54.235620 Q 50.483329 53.922929 50.326984 52.750338 Q 50.326984 51.577747 50.170638 51.265056 Q 49.467084 51.030538 48.998048 51.030538 Q 49.076220 50.874193 49.115307 50.717847 Q 49.154393 50.561502 49.232566 50.326984 Q 49.232566 49.388911 48.450839 49.154393 L 47.590939 49.623429 Q 47.825457 50.248811 47.981802 50.483329 L 44.229512 53.532065 Q 41.806158 55.642728 39.539149 56.346283 Q 40.008185 55.564556 43.447785 52.476733 Q 46.887384 49.388911 46.887384 46.887384 Q 46.574693 46.574693 45.949312 46.731039 L 45.323930 47.043730 Q 44.854894 46.652866 44.698548 46.340175 L 42.275194 47.903630 Q 42.040676 47.200075 42.744230 46.262003 Q 43.447785 45.323930 43.447785 44.776721 L 35.317822 51.499574 Q 33.910713 52.437647 32.190914 52.867597 Q 30.471114 53.297547 29.454869 53.453892 Q 28.438623 53.610238 27.187860 53.610238 L 23.122879 53.297547 Q 20.465006 53.297547 18.510688 49.818861 Q 16.556370 46.340175 14.054844 38.288385 Q 14.054844 29.845732 14.992916 25.077196 Q 15.930989 20.308661 19.096984 17.768048 Q 22.262979 15.227434 24.803592 14.484793 Q 27.344205 13.742153 30.314768 13.742153 Q 36.177722 13.742153 40.633567 16.321852 Q 42.118849 17.650788 43.408698 18.588861 Q 44.698548 19.526934 45.480275 20.035056 Q 46.262003 20.543179 47.825457 21.324906 Q 47.825457 19.995970 47.278248 19.136070 L 45.323930 16.321852 L 45.714793 15.696471 L 44.542203 14.445707 Q 45.245757 14.367534 46.379262 15.071089 Q 47.512766 15.774643 48.138148 16.009161 L 47.825457 14.445707 Q 48.294493 14.211189 48.841702 14.523880 L 49.857947 15.383780 Q 50.092466 15.227434 50.248811 14.367534 L 50.014293 13.116771 L 49.857947 12.256871 L 43.994994 6.784781 Q 41.962503 5.064981 38.835594 3.814218 L 38.132040 4.908636 L 41.415294 6.941126 Q 40.086358 6.550263 38.913767 6.237572 Q 37.741176 5.924881 36.685845 5.612190 Q 35.630513 5.299499 34.067059 4.205081 Q 34.926959 4.205081 35.395995 4.205081 L 36.568586 4.439599 Q 37.350313 4.439599 37.663004 3.345181 Q 32.269086 1.000000 25.624406 1.000000 Q 21.715770 1.000000 17.728961 1.938073 Q 13.742153 2.876145 10.380726 4.752290 Q 6.315745 8.035544 3.814218 11.905094 Q 1.312691 15.774643 1.312691 20.152315 L 2.172591 20.699524 Q 1.000000 25.624406 1.000000 30.549287 Q 1.000000 37.897522 3.657872 44.190426 Q 6.315745 50.483329 11.045194 54.782829 Q 15.774643 59.082328 19.917797 60.723955 Q 24.060951 62.365582 26.679737 62.912791 Q 29.298523 63.460000 32.190914 63.460000 Q 37.193967 63.460000 41.571640 61.740200 Z M 17.103579 43.213267 L 16.243680 40.164531 Q 16.243680 41.258949 16.439111 41.884330 Q 16.634543 42.509712 17.103579 43.213267 Z M 15.930989 37.975695 Q 15.930989 37.193967 15.774643 36.724931 L 15.774643 35.395995 Q 15.774643 32.269086 16.478198 29.415782 Q 17.181752 26.562478 18.823379 23.435569 Q 15.227434 27.891414 15.227434 33.519850 Q 15.227434 35.630513 15.930989 37.975695 Z M 40.711740 60.723955 L 48.685357 55.095519 L 45.167584 58.378773 Q 42.822403 60.254919 40.711740 60.723955 Z M 27.891414 56.424456 Q 30.783805 56.424456 33.598023 55.525469 Q 36.412240 54.626483 38.522904 53.063029 Q 36.568586 54.626483 34.340663 55.681815 Q 32.112741 56.737146 30.002078 56.737146 L 28.751314 56.737146 Z M 18.354343 55.799074 Q 17.259925 55.251865 16.673630 54.665569 Q 16.087334 54.079274 15.696471 53.219374 Q 16.790889 53.766583 17.416270 54.313792 Q 18.041652 54.861001 18.354343 55.799074 Z M 41.962503 50.639675 L 42.666058 50.639675 L 42.666058 51.186884 Q 42.587885 51.265056 42.197021 51.265056 Z M 11.084280 35.708686 Q 11.866008 41.337121 12.491389 43.330526 Q 13.116771 45.323930 13.663980 46.574693 Q 14.211189 47.825457 14.992916 49.154393 Q 12.413217 47.043730 11.905094 44.659462 Q 11.396971 42.275194 11.240626 40.399049 Q 11.084280 38.522904 11.084280 35.708686 Z M 29.454869 61.974718 Q 30.549287 61.505682 31.800050 61.505682 L 34.223404 61.740200 L 36.412240 61.974718 L 37.663004 61.740200 L 32.190914 62.678273 Q 30.861977 62.678273 29.454869 61.974718 Z M 9.677171 38.132040 L 8.895444 34.067059 Q 8.895444 28.282278 11.396971 23.435569 Q 13.898498 18.588861 18.667034 15.383780 L 18.667034 16.009161 Q 9.677171 25.233542 9.677171 38.132040 Z M 10.615244 51.030538 Q 14.992916 55.564556 19.057897 58.378773 Q 23.122879 61.192991 27.891414 61.740200 Q 20.621352 59.160501 14.445707 54.157447 Q 8.270063 49.154393 6.628436 42.431539 L 5.377672 35.239650 L 5.455845 33.832541 Q 5.455845 40.633567 6.159399 44.307685 Q 6.862954 47.981802 10.615244 51.030538 Z M 2.719800 28.516796 Q 2.719800 24.999024 3.696959 22.184806 Q 4.674118 19.370588 6.862954 15.696471 L 7.488335 15.696471 L 5.377672 20.934043 Z M 46.027484 18.823379 L 47.121902 19.448761 L 46.887384 19.605106 Z M 2.407109 19.448761 Q 2.719800 17.885307 3.188836 16.321852 Q 3.657872 14.758398 4.517772 12.999512 Q 5.377672 11.240626 7.722854 9.364481 Q 6.159399 11.240626 4.752290 13.976671 Z M 42.666058 14.680225 Q 43.213267 14.602053 43.760476 14.914743 L 44.698548 15.696471 Q 44.307685 15.696471 43.721389 15.266521 Q 43.135094 14.836571 42.666058 14.680225 Z M 19.995970 14.992916 Q 20.308661 13.820325 21.246733 13.507635 L 22.888360 13.273116 L 22.888360 13.585807 L 21.324906 14.680225 Q 20.777697 14.992916 19.995970 14.992916 Z M 7.722854 12.256871 L 6.159399 14.445707 L 5.924881 14.289362 Z M 42.509712 13.273116 L 43.838648 13.976671 L 43.682303 14.133016 Z M 25.311715 12.882253 Q 24.842678 12.960426 24.608160 13.038598 Q 24.139124 13.273116 23.982778 12.882253 Q 24.686333 12.178698 25.233542 12.178698 L 25.858924 12.413217 Q 25.858924 12.882253 25.311715 12.882253 Z M 30.471114 9.364481 Q 35.239650 9.364481 37.506658 11.631489 Q 36.412240 11.396971 35.356909 11.162453 Q 34.301577 10.927935 32.933554 10.576158 Q 31.565532 10.224380 30.471114 9.364481 Z M 10.068035 10.224380 L 9.051790 10.927935 L 10.615244 9.833517 Z M 8.426408 8.817272 Q 10.146208 6.315745 12.882253 5.221327 Q 15.540125 4.361427 20.934043 3.345181 Q 19.214243 3.345181 17.728961 3.736045 Q 16.243680 4.126909 14.523880 5.143154 Z M 16.790889 8.817272 Q 18.354343 8.035544 20.777697 7.371076 Q 23.201051 6.706608 25.155369 6.706608 Q 27.266033 6.706608 28.438623 7.097472 Q 28.282278 7.253817 27.422378 7.253817 L 26.406133 7.097472 Q 25.780751 7.097472 25.546233 7.957372 Q 24.139124 7.722854 22.732015 7.722854 Q 19.526934 7.722854 16.790889 8.817272 Z M 13.742153 7.957372 L 12.647735 8.270063 L 14.211189 7.253817 Z M 41.806158 7.097472 L 41.962503 6.941126 L 42.275194 7.488335 Z M 18.823379 5.924881 L 15.930989 6.784781 L 15.930989 6.393917 Z M 27.031514 3.032491 L 28.673141 3.188836 L 30.783805 3.110663 Q 32.659950 3.110663 33.754368 4.205081 Q 32.894468 3.970563 30.392941 3.736045 Q 28.282278 3.736045 27.031514 3.032491 Z M 23.982778 3.188836 L 24.529987 2.876145 L 25.546233 3.188836 Z M 4.283254 42.275194 L 4.439599 43.135094 Z M 47.121902 14.289362 L 46.574693 14.445707 Z M 46.418348 10.927935 L 47.434593 11.709662 Z" transform="scale(1.000000,1.000000) translate(92.123000,141.790000)" fill="#000000" opacity="1.000000"></path>
        <path d="M 8.087984 1.024611 C 10.106091 1.024611 11.582754 1.541443 12.591807 2.107498 L 12.591807 3.485717 C 11.582754 2.993496 10.352201 2.427441 8.260261 2.427441 C 4.347104 2.427441 2.722774 4.913158 2.722774 9.367759 L 2.722774 10.106091 C 2.722774 14.659136 4.937769 16.677242 8.309484 16.677242 C 10.007646 16.677242 11.213588 16.332688 12.419530 15.815855 L 12.419530 17.169464 C 11.459699 17.686296 10.204535 18.080073 8.407928 18.080073 C 4.100993 18.080073 1.000000 15.594356 1.000000 9.810758 L 1.000000 9.367759 C 1.000000 3.854882 3.559550 1.024611 8.087984 1.024611 Z M 22.067064 1.024611 C 26.521665 1.024611 29.253492 4.150215 29.253492 9.343148 L 29.253492 9.736925 C 29.253492 15.126746 26.521665 18.080073 22.116286 18.080073 C 17.661685 18.080073 14.929857 15.003691 14.929857 9.761536 L 14.929857 9.367759 C 14.929857 3.977938 17.661685 1.024611 22.067064 1.024611 Z M 22.091675 2.378219 C 18.326183 2.378219 16.652631 5.110046 16.652631 9.392370 L 16.652631 10.056868 C 16.652631 14.068471 18.547683 16.726465 22.042453 16.726465 C 25.857166 16.701853 27.530718 14.019248 27.530718 9.736925 L 27.530718 9.072426 C 27.530718 5.060824 25.684889 2.378219 22.091675 2.378219 Z M 32.551373 1.295333 L 37.276696 1.295333 C 42.617295 1.295333 45.078401 4.224048 45.078401 9.515425 L 45.078401 9.909202 C 45.078401 15.274412 42.346573 17.809351 37.227474 17.809351 L 32.551373 17.809351 Z M 34.126481 2.673552 L 34.126481 16.431132 L 37.104419 16.431132 C 41.189854 16.431132 43.355627 14.683747 43.355627 9.909202 L 43.355627 9.293926 C 43.355627 4.691658 41.460575 2.673552 37.301307 2.673552 Z M 48.376282 1.295333 L 58.146871 1.295333 L 58.146871 2.648941 L 49.951390 2.648941 L 49.951390 9.097037 L 56.202598 9.097037 L 56.202598 10.475256 L 49.951390 10.475256 L 49.951390 16.455743 L 58.073038 16.455743 L 58.073038 17.809351 L 48.376282 17.809351 Z M 68.212793 1.295333 L 69.812511 1.295333 L 69.812511 17.809351 L 68.212793 17.809351 Z M 77.663438 1.000000 C 81.453541 1.000000 83.102481 2.895051 83.102481 5.725323 C 83.102481 8.481761 81.527374 9.490814 79.066268 10.327590 L 77.589605 10.819811 C 75.497665 11.484310 74.833167 12.247252 74.833167 13.994637 C 74.833167 15.618967 75.989886 16.677242 78.204881 16.677242 C 80.026099 16.677242 81.355096 16.234243 82.265706 15.791244 L 82.265706 17.169464 C 81.404319 17.612463 80.198377 18.080073 78.278715 18.080073 C 74.907000 18.080073 73.208837 16.258854 73.208837 13.822360 C 73.208837 11.336643 74.513223 10.179924 76.974329 9.367759 L 78.401770 8.875538 C 80.493710 8.211039 81.478152 7.448097 81.478152 5.602267 C 81.478152 3.633383 80.296821 2.427441 77.564994 2.427441 C 75.842220 2.427441 74.193279 2.845829 72.962727 3.510328 L 72.962727 2.156720 C 74.045613 1.541443 75.669943 1.000000 77.663438 1.000000 Z M 92.922293 1.295333 L 94.522011 1.295333 L 94.522011 8.112595 L 97.967559 8.112595 C 101.191607 8.112595 103.209714 9.835369 103.209714 13.010195 C 103.209714 16.037355 101.536162 17.809351 97.721448 17.809351 L 92.922293 17.809351 Z M 94.522011 9.441592 L 94.522011 16.455743 L 97.549171 16.455743 C 100.527109 16.455743 101.486940 15.323634 101.486940 12.887140 C 101.486940 10.598312 100.379442 9.441592 97.623004 9.441592 Z M 112.414249 1.024611 C 116.868850 1.024611 119.600677 4.150215 119.600677 9.343148 L 119.600677 9.736925 C 119.600677 15.126746 116.868850 18.080073 112.463471 18.080073 C 108.008870 18.080073 105.277043 15.003691 105.277043 9.761536 L 105.277043 9.367759 C 105.277043 3.977938 108.008870 1.024611 112.414249 1.024611 Z M 112.438860 2.378219 C 108.673368 2.378219 106.999816 5.110046 106.999816 9.392370 L 106.999816 10.056868 C 106.999816 14.068471 108.894868 16.726465 112.389638 16.726465 C 116.204351 16.701853 117.877903 14.019248 117.877903 9.736925 L 117.877903 9.072426 C 117.877903 5.060824 116.032074 2.378219 112.438860 2.378219 Z M 122.898558 1.295333 L 132.669147 1.295333 L 132.669147 2.648941 L 124.473666 2.648941 L 124.473666 9.097037 L 130.724874 9.097037 L 130.724874 10.475256 L 124.473666 10.475256 L 124.473666 16.455743 L 132.595314 16.455743 L 132.595314 17.809351 L 122.898558 17.809351 Z M 139.978631 1.295333 L 141.578350 1.295333 L 141.578350 16.455743 L 146.795893 16.455743 L 146.795893 17.809351 L 134.761087 17.809351 L 134.761087 16.455743 L 139.978631 16.455743 Z M 149.601554 1.295333 L 151.176661 1.295333 L 151.176661 8.530983 L 154.622209 8.530983 L 158.929144 1.295333 L 160.774973 1.295333 L 156.221928 8.801705 L 156.221928 8.900149 C 158.486145 9.515425 159.642864 10.893644 159.642864 13.231695 C 159.642864 16.086577 157.920090 17.809351 154.253043 17.809351 L 149.601554 17.809351 Z M 151.176661 9.810758 L 151.176661 16.455743 L 154.179210 16.455743 C 156.886426 16.455743 157.920090 15.299023 157.920090 13.231695 C 157.920090 11.090533 156.960259 9.810758 154.203821 9.810758 Z M 167.444569 1.295333 L 169.019677 1.295333 L 169.019677 7.915707 L 174.507942 17.809351 L 172.932834 17.809351 L 168.330567 9.416981 L 168.281345 9.416981 L 163.629855 17.809351 L 161.956304 17.809351 L 167.444569 7.915707 Z" transform="scale(1.000000,1.000000) translate(265.630942,92.303628)" fill="#000000" opacity="1.000000"></path>
    </g>
</svg>